<?xml version="1.0" encoding="UTF-8" standalone="no"?>
<!-- Created with Inkscape (http://www.inkscape.org/) -->

<svg
   xmlns:dc="http://purl.org/dc/elements/1.1/"
   xmlns:cc="http://creativecommons.org/ns#"
   xmlns:rdf="http://www.w3.org/1999/02/22-rdf-syntax-ns#"
   xmlns:svg="http://www.w3.org/2000/svg"
   xmlns="http://www.w3.org/2000/svg"
   xmlns:sodipodi="http://sodipodi.sourceforge.net/DTD/sodipodi-0.dtd"
   xmlns:inkscape="http://www.inkscape.org/namespaces/inkscape"
   width="600"
   height="563.18823"
   id="svg3693"
   version="1.1"
   inkscape:version="0.47 r22583"
   sodipodi:docname="New document 6">
  <defs
     id="defs3695">
    <inkscape:perspective
       sodipodi:type="inkscape:persp3d"
       inkscape:vp_x="0 : 526.18109 : 1"
       inkscape:vp_y="0 : 1000 : 0"
       inkscape:vp_z="744.09448 : 526.18109 : 1"
       inkscape:persp3d-origin="372.04724 : 350.78739 : 1"
       id="perspective3701" />
    <inkscape:perspective
       id="perspective3688"
       inkscape:persp3d-origin="0.5 : 0.33333333 : 1"
       inkscape:vp_z="1 : 0.5 : 1"
       inkscape:vp_y="0 : 1000 : 0"
       inkscape:vp_x="0 : 0.5 : 1"
       sodipodi:type="inkscape:persp3d" />
  </defs>
  <sodipodi:namedview
     id="base"
     pagecolor="#ffffff"
     bordercolor="#666666"
     borderopacity="1.0"
     inkscape:pageopacity="0.0"
     inkscape:pageshadow="2"
     inkscape:zoom="0.35"
     inkscape:cx="269.28572"
     inkscape:cy="284.45125"
     inkscape:document-units="px"
     inkscape:current-layer="layer1"
     showgrid="false"
     borderlayer="false"
     showborder="true"
     inkscape:showpageshadow="false"
     width="600px"
     inkscape:window-width="1274"
     inkscape:window-height="724"
     inkscape:window-x="0"
     inkscape:window-y="25"
     inkscape:window-maximized="1" />
  <metadata
     id="metadata3698">
    <rdf:RDF>
      <cc:Work
         rdf:about="">
        <dc:format>image/svg+xml</dc:format>
        <dc:type
           rdf:resource="http://purl.org/dc/dcmitype/StillImage" />
        <dc:title></dc:title>
      </cc:Work>
    </rdf:RDF>
  </metadata>
  <g
     inkscape:label="Layer 1"
     inkscape:groupmode="layer"
     id="layer1"
     transform="translate(-105.71428,-253.6252)">
    <path
       id="Unnamed#1"
       d="m 428.50978,291.31607 c 0.14752,0.14753 32.89867,6.34369 65.50229,8.99919 32.60361,2.6555 32.30856,2.36044 43.52065,2.06539 11.21211,-0.29506 39.09485,-1.91786 48.68414,-3.83572 9.5893,-1.91787 15.63794,-1.62281 18.58849,-2.6555 2.95055,-1.03269 2.21292,-4.57336 5.16347,-4.72089 2.95055,-0.14752 10.1794,3.09809 11.21211,4.86842 1.03269,1.77033 -1.03271,3.54066 1.03269,3.68819 2.06538,0.14752 4.86841,0.73764 8.99919,3.54066 4.13077,2.80303 17.40826,5.60605 18.73601,20.8014 0.29506,2.50798 -0.73764,2.80303 -2.65549,6.19617 0.73763,4.13077 2.50796,0.88516 2.50796,4.42583 0,3.54066 1.91786,8.26155 2.80303,13.8676 0.88517,5.60606 13.8676,46.02864 19.7687,54.14266 5.90112,8.11402 4.57336,7.67144 4.27831,16.96569 -0.14753,4.72088 4.57336,6.78627 2.6555,12.53984 -0.29506,12.09728 2.50797,17.11322 1.32775,20.94893 -1.18023,3.83572 -7.9665,9.44178 -11.21211,10.76953 -3.24561,1.32775 -8.5566,-1.03269 -15.19535,7.22885 -6.63875,8.26156 -14.75277,21.09646 -14.75277,24.04702 0,2.95055 -2.21292,5.75357 8.26156,8.5566 10.47446,2.80303 11.94974,6.63875 13.72006,7.67144 1.77034,1.03269 9.73684,1.62281 7.52392,16.08052 -2.21291,14.45771 1.03269,12.2448 -0.29505,15.19535 -1.32775,2.95055 -4.86842,3.09808 -4.2783,9.29425 0.5901,6.19616 0.73763,14.01512 7.96648,21.83409 7.22887,7.81897 -2.50797,14.31019 1.62281,17.70332 4.13078,3.39314 8.99919,10.76953 12.83491,12.83491 -0.59011,4.2783 0.29506,7.08133 5.01594,13.12997 4.72088,6.04862 7.52391,13.12995 13.57255,13.27749 -4.72089,3.54066 -5.311,1.47527 -8.70413,3.68818 -3.39314,2.21292 -1.0327,5.90111 1.6228,9.29425 2.6555,3.39314 7.67144,8.11402 5.16347,20.2113 -2.50797,12.09726 -5.90111,12.53984 -20.2113,15.4904 -10.03188,11.06457 -20.21129,22.57174 -32.75114,39.24236 -12.53985,16.67063 -33.48878,46.76627 -31.27586,49.42177 2.21291,2.6555 6.78627,5.9011 6.93379,18.2934 0.14753,12.3924 -2.50797,12.3924 10.47447,23.4569 1.18022,4.2783 2.95055,6.4913 0.29506,6.6388 -2.65551,0.1475 -6.04864,-4.1308 -10.03189,-2.9506 -3.98325,1.1802 -5.90111,-4.7209 -11.50716,-4.1308 -5.60605,0.5902 -10.03188,-0.8851 -12.68738,-3.9832 -2.6555,-3.0981 -1.91785,4.8684 -10.62199,-3.3931 -4.72089,-2.0654 -9.88435,-1.0327 -11.80222,-7.2289 -1.91786,-6.1962 -3.1984,-9.8371 -14.20986,-11.4068 -11.01737,-1.5756 -6.69186,-6.2965 -11.80222,-5.5117 -5.11625,0.7908 -5.9011,4.9216 -12.59296,1.7704 -6.68595,-3.1453 -8.26155,-5.311 -10.22661,-0.5901 -1.96508,4.7208 -1.96508,4.1307 -5.11627,2.561 -3.14529,-1.5756 -6.88069,-2.1657 -5.11035,2.5552 1.77032,4.7209 -2.75583,2.3605 -4.33142,5.5057 -1.56969,3.1512 -5.90111,2.5611 -10.22662,-0.5901 -4.32551,-3.1452 -6.09584,-7.8661 -9.24704,-7.276 -3.14528,0.5901 -6.68594,2.3604 -9.6365,4.3255 -2.95056,1.971 -3.34593,-3.9302 -6.88659,-3.7354 -3.54067,0.1947 -5.50574,-1.375 -7.08133,2.1657 -0.97958,7.4708 -6.88069,3.1453 -9.24114,5.9011 -2.36044,2.7499 -5.31099,8.651 -6.29648,13.3719 -0.98548,4.7209 -3.54066,-0.7848 -5.11626,-1.5697 -1.56969,-0.7907 -3.73539,0.3895 -7.86617,1.7703 -4.13078,1.375 -8.65693,2.1599 -7.08133,-1.9709 1.5756,-4.1308 2.75581,-17.5027 0.98549,-17.8981 -1.77034,-0.3954 -5.311,3.7354 -9.64242,-2.9505 -4.3255,-6.686 -6.29058,-18.68884 -11.01146,-17.8981 -4.72089,0.78486 -4.33141,7.4708 -8.46219,8.2616 -4.13077,0.7848 -5.311,1.1802 -7.08133,9.2411 -1.77033,8.0668 -16.71783,4.5261 -16.52309,1.5756 0.20063,-2.9506 1.57558,-11.0174 -2.15981,-10.8167 -3.74131,0.1947 -5.90111,0.7848 -6.29649,-11.80226 -0.98548,-7.67143 -7.27606,-0.98548 -9.83714,-5.70637 -2.55518,-4.72089 -1.37495,-17.89806 -5.311,-19.07827 -3.93013,-1.18023 -11.2121,2.74991 -15.93299,-1.5756 -4.72088,-4.32552 -12.58706,-10.62199 -13.96201,-12.98243 -1.38086,-2.36045 -4.92152,-3.1453 -4.52615,-0.78486 0.39537,2.36044 -1.96507,6.29059 -7.08133,5.70047 -5.11626,-0.59011 -8.85167,-3.93013 -10.03188,-9.6365 -3.54067,-3.93604 -13.57255,-4.32551 -9.63651,-6.68596 3.93013,-2.36044 11.2121,-2.95055 10.62199,-6.49122 -0.59011,-3.54066 1.37496,-10.42725 -1.97097,-9.0523 -3.34003,1.38086 -6.49121,6.10175 -15.53762,4.52615 -9.0464,-1.57559 -11.2121,-5.50573 -15.93299,-9.83714 -4.72088,-4.32552 -20.45913,-10.81673 -20.65387,-5.70047 -0.19474,5.11036 5.50573,8.45628 7.27607,12.7818 1.77032,4.33141 2.1657,5.51164 -2.36045,6.49122 -4.52025,0.98548 -8.65102,3.34592 -12.39232,8.65692 -3.73541,5.311 -10.81674,-1.18022 -13.37192,-8.06681 -2.56107,-6.8807 -9.44176,-16.91258 -12.00285,-17.30795 -2.55518,-0.39537 -11.01146,-4.13078 -7.27606,-8.26155 3.7354,-4.13077 14.16266,-4.91562 12.58706,-11.99695 -1.56969,-7.08133 -6.49121,-9.0523 -9.44177,-8.06682 -2.95055,0.98549 -7.4708,0.19474 -11.80221,3.54067 -4.32551,3.34592 -3.1453,-2.1657 -4.91562,-4.91562 -1.77033,-2.75582 -6.49122,0 -7.4767,-0.59011 -0.97959,-0.59012 -0.59012,-7.87208 -3.34003,-7.28197 -2.75582,0.59011 -11.80222,-2.1598 -17.31385,-4.52025 -5.50573,-2.36044 -5.11036,1.5697 -9.24113,0.19474 2.74991,-7.86617 -6.69186,-6.68596 -5.11626,-14.55803 -2.75582,-7.86618 1.37495,-6.09585 -5.11626,-7.67145 -6.49122,-1.56969 -10.03189,-6.49121 -10.622,-2.95055 -0.59011,3.54067 -0.19473,16.13363 -3.7354,15.54352 -3.54066,-0.59011 -13.76728,1.37496 -9.24703,-1.77033 4.52615,-3.15119 13.77318,-21.24399 14.55803,-30.68576 3.34593,-8.26155 -1.96507,-12.59296 -1.77033,-15.93299 0.19473,-3.34593 1.37496,-10.03188 -1.37496,-10.62199 -2.75582,-0.59011 -11.60748,-1.97098 -11.80222,-6.49122 -0.20063,-4.52615 4.13078,-8.46219 2.36045,-12.19758 -1.77033,-3.73541 -9.83715,-10.22662 -8.06682,-16.12774 1.77034,-5.9011 6.8866,-5.11625 7.27607,-12.59295 0.39537,-7.47081 5.90111,-8.65103 1.57559,-13.57255 -4.32551,-4.91563 1.37496,-10.22662 -0.19473,-13.57255 -1.5756,-3.34003 -7.87208,-3.93014 -7.87208,-11.60158 -1.96507,-7.28196 6.10175,-14.16266 4.92152,-20.06376 -1.18022,-5.90111 -9.44177,-14.16266 -15.54351,-19.6743 -6.09585,-5.50573 -14.55213,-7.08132 -10.22662,-16.32245 4.32551,-9.24704 13.76728,-10.82264 14.9475,-17.31386 1.18023,-6.49121 1.77034,-7.86617 3.93604,-14.75276 2.16571,-6.88069 -3.54066,-15.34288 -4.13077,-25.37476 -0.59011,-10.03188 -4.52615,-30.8805 -4.52615,-35.206 0,-4.33142 -1.77033,-8.85167 0.98548,-7.67145 2.75582,1.18022 10.22662,3.34003 12.98244,1.5697 2.75582,-1.77034 17.11321,-9.24114 20.84861,-9.44177 3.7413,-0.19474 25.77014,-8.85167 30.29628,-9.44178 4.52025,-0.5901 19.6684,-1.56969 29.11017,-5.11036 7.08133,-2.36044 15.93298,1.18023 27.14509,-12.98243 11.2121,-14.16266 8.45628,-13.96792 19.66839,-16.91847 11.2121,-2.95055 7.87207,1.96506 15.14814,-3.34593 7.27606,-5.311 15.93299,-13.96202 26.55498,-14.94751 10.622,-0.98548 22.61894,-5.11626 32.26136,-6.29648 9.6365,-1.18022 17.70332,-1.77033 22.61894,-0.19473 4.91562,1.57559 23.60443,14.16265 25.37476,17.50858 1.77033,3.34003 2.36044,9.83125 -0.78485,5.11036 -4.33141,-5.70047 -1.5756,-7.86617 -12.00285,-12.98244 -10.42135,-5.11035 -7.67144,-6.68595 -8.26155,-1.77033 -0.59011,4.92152 3.15119,5.51163 3.54066,9.0523 0.39538,3.54066 3.54066,5.50573 3.74131,8.65102 0.19474,3.1512 0.59011,11.60748 2.1598,13.18308 1.5756,1.56969 5.311,5.9011 9.64241,7.08133 4.32551,1.18022 22.42421,2.74991 33.0462,-0.39538 10.622,-3.14529 16.86536,-9.14672 17.0129,-8.99919 z"
       style="fill:#c41285;fill-opacity:1;stroke:#000000;stroke-width:0.59011072;stroke-opacity:0" />
  </g>
</svg>
